# xmcd
#
# Track frame offsets:
#	150
#	15967
#	29092
#	37480
#	64357
#	87775
#	97817
#	112080
#	136892
#	144490
#	165792
#	178275
#	192455
#	226542
#	240682
#	249397
#	266937
#	272587
#	281565
#
# Disc length: 3816
#
# Revision: 1
# Processed by: cddbd v1.5.1PL0 Copyright (c) Steve Scherf et al.
# Submitted via: ExactAudioCopy v0.90b4
# Normalized: r0:TDELIM( - )
#
DISCID=0e0ee613
DTITLE=Kammerorchester Carl Philipp Emanuel Bach - Hartmut Haenchen - Bach - Mozart - Britten - Händel
DYEAR=1992
DGENRE=Classical
TTITLE0=C. P. E. Bach - Symphonie in D-Dur Wq 176 - I - Allegro assai
TTITLE1=C. P. E. Bach - Symphonie in D-Dur Wq 176 - II - Andante
TTITLE2=C. P. E. Bach - Symphonie in D-Dur Wq 176 - III - Presto
TTITLE3=W. A. Mozart - Serenade in G-Dur KV 525 "Eine kleine Nachtmusik" - I - Allegro
TTITLE4=W. A. Mozart - Serenade in G-Dur KV 525 "Eine kleine Nachtmusik" - II - Romance. Andante
TTITLE5=W. A. Mozart - Serenade in G-Dur KV 525 "Eine kleine Nachtmusik" - III - Menuetto. Allegretto - Trio
TTITLE6=W. A. Mozart - Serenade in G-Dur KV 525 "Eine kleine Nachtmusik" - IV - Rondo. Allegro
TTITLE7=J. S. Bach - Brandenburgisches Konzert Nr. 3 in G-Dur BWV 1048 - I - (ohne Satzbezeichnung)
TTITLE8=J. S. Bach - Brandenburgisches Konzert Nr. 3 in G-Dur BWV 1048 - II - Adagio
TTITLE9=J. S. Bach - Brandenburgisches Konzert Nr. 3 in G-Dur BWV 1048 - III - Allegro
TTITLE10=B. Britten - Simple Symphony for String Orchestra op. 4 - I - Boisterous Bourrée. Allegro ritmico
TTITLE11=B. Britten - Simple Symphony for String Orchestra op. 4 - II - Playful pizzicato. Presto possibile pizzicato sempre
TTITLE12=B. Britten - Simple Symphony for String Orchestra op. 4 - III - Sentimental Saraband. Poco lento e pesante
TTITLE13=B. Britten - Simple Symphony for String Orchestra op. 4 - IV - Frolicsome Finale. Prestissimo con fuoco
TTITLE14=G. F. Händel - Suite No. 2 aus "Wassermusik" in D-Dur - I - (ohne Satzbezeichnung)
TTITLE15=G. F. Händel - Suite No. 2 aus "Wassermusik" in D-Dur - II - Alla Hornpipe
TTITLE16=G. F. Händel - Suite No. 2 aus "Wassermusik" in D-Dur - III - Minuet
TTITLE17=G. F. Händel - Suite No. 2 aus "Wassermusik" in D-Dur - IV - Lentement
TTITLE18=G. F. Händel - Suite No. 2 aus "Wassermusik" in D-Dur - V - Bourrée
EXTD=
EXTT0=
EXTT1=
EXTT2=
EXTT3=
EXTT4=
EXTT5=
EXTT6=
EXTT7=
EXTT8=
EXTT9=
EXTT10=
EXTT11=
EXTT12=
EXTT13=
EXTT14=
EXTT15=
EXTT16=
EXTT17=
EXTT18=
PLAYORDER=
